<svg viewBox="0 0 24 24" fill="none" xmlns="http://www.w3.org/2000/svg" id="Bars--Streamline-Unicons"><desc>Bars Streamline Icon: https://streamlinehq.com</desc><path d="M1.416 7.296h21.168c0.3119 0 0.611 -0.1239 0.8316 -0.3444 0.2205 -0.2206 0.3444 -0.5197 0.3444 -0.8316s-0.1239 -0.611 -0.3444 -0.8316c-0.2205 -0.2205 -0.5197 -0.3444 -0.8316 -0.3444H1.416c-0.3119 0 -0.611 0.1239 -0.8316 0.3444C0.3639 5.509 0.24 5.8081 0.24 6.12s0.1239 0.611 0.3444 0.8316c0.2206 0.2205 0.5197 0.3444 0.8316 0.3444Zm21.168 9.408H1.416c-0.3119 0 -0.611 0.124 -0.8316 0.3445 -0.2205 0.2205 -0.3444 0.5196 -0.3444 0.8315 0 0.3119 0.1239 0.6111 0.3444 0.8316 0.2206 0.2205 0.5197 0.3444 0.8316 0.3444h21.168c0.3119 0 0.611 -0.1239 0.8316 -0.3444s0.3444 -0.5197 0.3444 -0.8316c0 -0.3119 -0.1239 -0.611 -0.3444 -0.8315s-0.5197 -0.3445 -0.8316 -0.3445Zm0 -5.88H1.416c-0.3119 0 -0.611 0.124 -0.8316 0.3445C0.3639 11.389 0.24 11.6881 0.24 12c0 0.3119 0.1239 0.6111 0.3444 0.8316 0.2206 0.2205 0.5197 0.3444 0.8316 0.3444h21.168c0.3119 0 0.611 -0.1239 0.8316 -0.3444s0.3444 -0.5197 0.3444 -0.8316c0 -0.3119 -0.1239 -0.611 -0.3444 -0.8315s-0.5197 -0.3445 -0.8316 -0.3445Z" fill="#000000" stroke-width="1"></path></svg>