<svg viewBox="0 0 16 16" fill="none" xmlns="http://www.w3.org/2000/svg" id="Instagram--Streamline-Unicons" height="16" width="16"><desc>Instagram Streamline Icon: https://streamlinehq.com</desc><path d="M12.186533333333333 2.8726666666666665c-0.186 0 -0.3679333333333333 0.055133333333333326 -0.5226666666666666 0.15853333333333333 -0.15466666666666667 0.10339999999999999 -0.27526666666666666 0.2503333333333333 -0.34653333333333336 0.42219999999999996 -0.0712 0.17193333333333333 -0.08973333333333333 0.36106666666666665 -0.05346666666666666 0.5436 0.03633333333333333 0.18246666666666667 0.12586666666666665 0.3501333333333333 0.2574666666666666 0.4816666666666667 0.13153333333333334 0.1316 0.29919999999999997 0.22119999999999998 0.4816666666666667 0.2574666666666666 0.18253333333333333 0.03633333333333333 0.37166666666666665 0.01773333333333333 0.5436 -0.05353333333333333 0.17193333333333333 -0.0712 0.3188 -0.1918 0.42219999999999996 -0.3464666666666667 0.10333333333333333 -0.15473333333333333 0.15853333333333333 -0.3366 0.15853333333333333 -0.5226666666666666 0 -0.24953333333333333 -0.09906666666666666 -0.4888666666666666 -0.2755333333333333 -0.6652666666666667 -0.1764 -0.17646666666666666 -0.4156666666666667 -0.2755333333333333 -0.6652666666666667 -0.2755333333333333Zm3.6064 1.8972666666666664c-0.0152 -0.6504666666666666 -0.13699999999999998 -1.2940666666666667 -0.36060000000000003 -1.9051333333333331 -0.19939999999999997 -0.5227999999999999 -0.5095999999999999 -0.9962666666666666 -0.9094666666666666 -1.3876666666666666 -0.3882 -0.40186666666666665 -0.8626666666666667 -0.7101999999999999 -1.3876666666666666 -0.9016 -0.6093999999999999 -0.2304 -1.2538 -0.355 -1.9051333333333331 -0.3684666666666666C10.399066666666666 0.15999999999999998 10.132466666666666 0.15999999999999998 8 0.15999999999999998s-2.3990666666666662 0 -3.2300666666666666 0.04706666666666666c-0.6514 0.013466666666666665 -1.2956666666666665 0.13806666666666667 -1.9051333333333331 0.3684666666666666 -0.5239333333333334 0.1933333333333333 -0.9980666666666667 0.5014 -1.3876666666666666 0.9016 -0.40186666666666665 0.3882 -0.7101999999999999 0.8627333333333334 -0.9016 1.3876666666666666 -0.2304 0.6094666666666666 -0.355 1.2537333333333334 -0.3684666666666666 1.9051333333333331C0.15999999999999998 5.600933333333334 0.15999999999999998 5.867533333333332 0.15999999999999998 8s0 2.3990666666666662 0.04706666666666666 3.2300666666666666c0.013466666666666665 0.6513333333333333 0.13806666666666667 1.2957333333333332 0.3684666666666666 1.9051333333333331 0.19140000000000001 0.5249999999999999 0.49973333333333336 0.9994666666666667 0.9016 1.3876666666666666 0.3896 0.40019999999999994 0.8637333333333334 0.7082666666666666 1.3876666666666666 0.9016 0.6094666666666666 0.2303333333333333 1.2537333333333334 0.355 1.9051333333333331 0.3684666666666666C5.600933333333334 15.84 5.867533333333332 15.84 8 15.84s2.3990666666666662 0 3.2300666666666666 -0.04706666666666666c0.6513333333333333 -0.013466666666666665 1.2957333333333332 -0.13813333333333333 1.9051333333333331 -0.3684666666666666 0.5249999999999999 -0.19146666666666667 0.9994666666666667 -0.49973333333333336 1.3876666666666666 -0.9016 0.4016 -0.3899333333333333 0.7121333333333333 -0.8638 0.9094666666666666 -1.3876666666666666 0.22359999999999997 -0.6110666666666666 0.3454 -1.2546 0.36060000000000003 -1.9051333333333331 0 -0.831 0.04706666666666666 -1.0976 0.04706666666666666 -3.2300666666666666s0 -2.3990666666666662 -0.04706666666666666 -3.2300666666666666Zm-1.4112 6.366066666666666c-0.005666666666666667 0.4976666666666667 -0.0958 0.9907333333333332 -0.2665333333333333 1.4582666666666664 -0.12519999999999998 0.3412 -0.3262 0.6494666666666666 -0.588 0.9016 -0.2543333333333333 0.25906666666666667 -0.5619999999999999 0.4597333333333333 -0.9016 0.588 -0.4674666666666667 0.17073333333333332 -0.9605333333333334 0.2608 -1.4582666666666664 0.2665333333333333 -0.7839999999999999 0.0392 -1.0740666666666665 0.04706666666666666 -3.1359999999999997 0.04706666666666666s-2.352 0 -3.1359999999999997 -0.04706666666666666c-0.5167333333333333 0.009666666666666667 -1.0312666666666666 -0.06986666666666666 -1.5209333333333332 -0.2352 -0.3247333333333333 -0.13473333333333332 -0.6182666666666666 -0.3349333333333333 -0.8624 -0.588 -0.2602 -0.2518666666666667 -0.4588 -0.5604 -0.5801333333333333 -0.9016 -0.19146666666666667 -0.47413333333333335 -0.2976 -0.9785333333333333 -0.3136 -1.4895999999999998 0 -0.7839999999999999 -0.04706666666666666 -1.0740666666666665 -0.04706666666666666 -3.1359999999999997s0 -2.352 0.04706666666666666 -3.1359999999999997c0.0034666666666666665 -0.5087333333333333 0.09633333333333333 -1.0129333333333332 0.2744 -1.4895999999999998 0.13799999999999998 -0.3309333333333333 0.34986666666666666 -0.6258666666666666 0.6193333333333333 -0.8624 0.2382 -0.2695333333333333 0.5325333333333333 -0.4836666666666667 0.8624 -0.6272 0.47786666666666666 -0.17246666666666666 0.9815333333333333 -0.26259999999999994 1.4895999999999998 -0.2665333333333333 0.7839999999999999 0 1.0740666666666665 -0.04706666666666666 3.1359999999999997 -0.04706666666666666s2.352 0 3.1359999999999997 0.04706666666666666c0.4976666666666667 0.005666666666666667 0.9907333333333332 0.0958 1.4582666666666664 0.2665333333333333 0.35619999999999996 0.13219999999999998 0.6759999999999999 0.3472 0.9329333333333333 0.6272 0.25693333333333335 0.24080000000000001 0.4577333333333333 0.5352666666666666 0.588 0.8624 0.17426666666666668 0.47739999999999994 0.2644666666666666 0.9813999999999999 0.2665333333333333 1.4895999999999998 0.0392 0.7839999999999999 0.04706666666666666 1.0740666666666665 0.04706666666666666 3.1359999999999997s-0.007866666666666666 2.352 -0.04706666666666666 3.1359999999999997ZM8 3.978066666666667c-0.7951333333333334 0.0015999999999999999 -1.5719333333333332 0.2388 -2.232333333333333 0.6816666666666666 -0.6603333333333333 0.44286666666666663 -1.1745999999999999 1.0715333333333332 -1.4778666666666667 1.8066 -0.30319999999999997 0.735 -0.3817333333333333 1.5434666666666665 -0.22566666666666668 2.3230666666666666 0.15613333333333332 0.7796666666666666 0.5398 1.4955999999999998 1.1025333333333331 2.0573333333333332 0.5628 0.5616666666666666 1.2794666666666665 0.9439333333333333 2.0594666666666663 1.0984666666666665 0.7799333333333333 0.1546 1.5881999999999998 0.07446666666666665 2.3226666666666667 -0.2302 0.7344666666666666 -0.3046 1.3621333333333334 -0.8201333333333333 1.8036666666666665 -1.4814 0.44166666666666665 -0.6612 0.6773333333333333 -1.4384666666666668 0.6773333333333333 -2.2336 0.001 -0.5291333333333332 -0.1026 -1.0532 -0.3048666666666666 -1.5421333333333334 -0.2022 -0.48893333333333333 -0.49906666666666666 -0.9330666666666666 -0.8735999999999999 -1.3068666666666666s-0.8192666666666667 -0.6698 -1.3085333333333333 -0.8711333333333333c-0.48939999999999995 -0.20126666666666665 -1.0136666666666665 -0.3038666666666666 -1.5428 -0.30179999999999996Zm0 6.632666666666666c-0.5163333333333333 0 -1.0210666666666666 -0.15313333333333332 -1.4504000000000001 -0.44 -0.42933333333333334 -0.28686666666666666 -0.7639999999999999 -0.6946 -0.9615999999999999 -1.1716666666666666 -0.1976 -0.477 -0.24926666666666666 -1.0019333333333331 -0.14853333333333332 -1.5084 0.10073333333333334 -0.5064 0.34933333333333333 -0.9716666666666667 0.7144666666666667 -1.3367333333333333 0.36506666666666665 -0.36506666666666665 0.8303333333333334 -0.6137333333333332 1.3367333333333333 -0.7144666666666667 0.5064666666666666 -0.10073333333333334 1.0313999999999999 -0.04906666666666666 1.5084 0.14853333333333332 0.47706666666666664 0.1976 0.8847999999999999 0.5322666666666667 1.1716666666666666 0.9615999999999999 0.28686666666666666 0.42933333333333334 0.44 0.9340666666666666 0.44 1.4504000000000001 0 0.34286666666666665 -0.06753333333333333 0.6823333333333333 -0.19873333333333332 0.9990666666666665 -0.13119999999999998 0.31679999999999997 -0.32353333333333334 0.6045333333333334 -0.5659333333333333 0.847 -0.24246666666666666 0.24246666666666666 -0.5302 0.4347333333333333 -0.847 0.5659333333333333 -0.3167333333333333 0.13119999999999998 -0.6561999999999999 0.19873333333333332 -0.9990666666666665 0.19873333333333332Z" fill="#000000" stroke-width="0.6667"></path></svg>