<svg viewBox="0 0 16 16" fill="none" xmlns="http://www.w3.org/2000/svg" id="Linkedin-Alt--Streamline-Unicons" height="16" width="16"><desc>Linkedin Alt Streamline Icon: https://streamlinehq.com</desc><path d="M11.803133333333331 5.612066666666667c-0.6541333333333332 -0.0002666666666666667 -1.298 0.1615333333333333 -1.8743333333333334 0.47086666666666666 -0.05246666666666667 -0.13846666666666665 -0.146 -0.2577333333333333 -0.2679333333333333 -0.3418 -0.12193333333333334 -0.08413333333333334 -0.26666666666666666 -0.12913333333333332 -0.4147333333333333 -0.12906666666666666H6.323799999999999c-0.09593333333333333 -0.00006666666666666667 -0.19093333333333332 0.018799999999999997 -0.27959999999999996 0.05553333333333333 -0.08866666666666667 0.03666666666666667 -0.16926666666666668 0.09046666666666665 -0.23706666666666668 0.15833333333333333 -0.06786666666666666 0.06786666666666666 -0.12166666666666666 0.14839999999999998 -0.15839999999999999 0.23706666666666668 -0.03666666666666667 0.08866666666666667 -0.05553333333333333 0.18366666666666667 -0.055466666666666664 0.2796666666666666v8.766733333333333c-0.00006666666666666667 0.09599999999999999 0.018799999999999997 0.19099999999999998 0.055466666666666664 0.2796666666666666 0.03673333333333333 0.08873333333333333 0.09053333333333333 0.16920000000000002 0.15839999999999999 0.23706666666666668 0.0678 0.06786666666666666 0.14839999999999998 0.12166666666666666 0.23706666666666668 0.15839999999999999 0.08866666666666667 0.03666666666666667 0.18366666666666667 0.05553333333333333 0.27959999999999996 0.055466666666666664h2.922333333333333c0.09593333333333333 0.00006666666666666667 0.19093333333333332 -0.018799999999999997 0.27959999999999996 -0.055466666666666664 0.08866666666666667 -0.03673333333333333 0.16926666666666668 -0.09053333333333333 0.23706666666666668 -0.15839999999999999 0.06786666666666666 -0.06786666666666666 0.12166666666666666 -0.14833333333333332 0.15833333333333333 -0.23706666666666668 0.03666666666666667 -0.08866666666666667 0.05553333333333333 -0.18366666666666667 0.05553333333333333 -0.2796666666666666V11.091333333333333c0 -0.1938 0.07693333333333333 -0.37953333333333333 0.214 -0.5166 0.13699999999999998 -0.13699999999999998 0.32286666666666664 -0.214 0.5166 -0.214s0.37953333333333333 0.077 0.5166 0.214c0.13693333333333332 0.13706666666666667 0.21393333333333334 0.3228 0.21393333333333334 0.5166v4.018066666666666c-0.00006666666666666667 0.09599999999999999 0.018799999999999997 0.19099999999999998 0.055466666666666664 0.2796666666666666 0.03673333333333333 0.08873333333333333 0.09053333333333333 0.16920000000000002 0.15839999999999999 0.23706666666666668s0.14839999999999998 0.12166666666666666 0.23706666666666668 0.15839999999999999c0.08866666666666667 0.03666666666666667 0.18366666666666667 0.05553333333333333 0.2796666666666666 0.055466666666666664h2.9222666666666663c0.09593333333333333 0.00006666666666666667 0.19099999999999998 -0.018799999999999997 0.27959999999999996 -0.055466666666666664 0.08866666666666667 -0.03673333333333333 0.16926666666666668 -0.09053333333333333 0.23706666666666668 -0.15839999999999999 0.06786666666666666 -0.06786666666666666 0.12166666666666666 -0.14833333333333332 0.15839999999999999 -0.23706666666666668 0.03666666666666667 -0.08866666666666667 0.055466666666666664 -0.18366666666666667 0.055466666666666664 -0.2796666666666666v-5.4792c-0.0012666666666666666 -1.0652666666666666 -0.4250666666666666 -2.086533333333333 -1.1783333333333332 -2.8397999999999994 -0.7532666666666665 -0.7532666666666665 -1.7745333333333333 -1.177 -2.8397999999999994 -1.1783333333333332Zm2.5569333333333333 8.7668h-1.4611333333333332V11.091333333333333c0 -0.5812666666666666 -0.23093333333333332 -1.1387333333333332 -0.6419333333333332 -1.5497999999999998 -0.41100000000000003 -0.41100000000000003 -0.9685333333333334 -0.6419333333333332 -1.5497333333333334 -0.6419333333333332 -0.5813333333333333 0 -1.1387333333333332 0.23093333333333332 -1.5498666666666667 0.6419333333333332 -0.41100000000000003 0.4110666666666667 -0.6418666666666666 0.9685333333333334 -0.6418666666666666 1.5497999999999998v3.287533333333333h-1.4611333333333332V7.0732h1.4611333333333332v0.5137333333333333c0.00006666666666666667 0.15133333333333332 0.04713333333333333 0.29893333333333333 0.13473333333333332 0.4224 0.08759999999999998 0.12346666666666667 0.21133333333333332 0.21666666666666667 0.35419999999999996 0.2668 0.14279999999999998 0.050133333333333335 0.29766666666666663 0.05466666666666667 0.4431999999999999 0.013 0.14553333333333332 -0.041666666666666664 0.2745333333333333 -0.12746666666666667 0.3692 -0.24559999999999998 0.32786666666666664 -0.4164 0.7776000000000001 -0.7200666666666666 1.2863333333333333 -0.8685333333333333 0.5087999999999999 -0.14839999999999998 1.0511333333333333 -0.13426666666666665 1.5515333333333334 0.0404 0.5003333333333333 0.17479999999999998 0.9336666666666666 0.5014 1.2393333333333332 0.9343333333333332 0.3057333333333333 0.4328666666666666 0.4686666666666666 0.9504666666666666 0.46599999999999997 1.4804666666666666v4.748666666666667ZM4.132133333333333 5.612066666666667H1.2098666666666666c-0.09599999999999999 -0.00006666666666666667 -0.19099999999999998 0.018799999999999997 -0.2796666666666666 0.05553333333333333 -0.08866666666666667 0.03666666666666667 -0.16920000000000002 0.09046666666666665 -0.23706666666666668 0.15833333333333333s-0.12166666666666666 0.14839999999999998 -0.15833333333333333 0.23706666666666668c-0.03673333333333333 0.08866666666666667 -0.0556 0.18366666666666667 -0.05553333333333333 0.2796666666666666v8.766733333333333c-0.00006666666666666667 0.09599999999999999 0.018799999999999997 0.19099999999999998 0.05553333333333333 0.2796666666666666 0.03666666666666667 0.08873333333333333 0.09046666666666665 0.16920000000000002 0.15833333333333333 0.23706666666666668s0.14839999999999998 0.12166666666666666 0.23706666666666668 0.15839999999999999c0.08866666666666667 0.03666666666666667 0.18366666666666667 0.05553333333333333 0.2796666666666666 0.055466666666666664h2.9222666666666663c0.09593333333333333 0.00006666666666666667 0.19099999999999998 -0.018799999999999997 0.27959999999999996 -0.055466666666666664 0.08866666666666667 -0.03673333333333333 0.16926666666666668 -0.09053333333333333 0.23713333333333333 -0.15839999999999999 0.0678 -0.06786666666666666 0.12166666666666666 -0.14833333333333332 0.15833333333333333 -0.23706666666666668 0.03666666666666667 -0.08866666666666667 0.05553333333333333 -0.18366666666666667 0.055466666666666664 -0.2796666666666666V6.342666666666666c0.00006666666666666667 -0.09599999999999999 -0.018799999999999997 -0.19099999999999998 -0.055466666666666664 -0.2796666666666666 -0.03666666666666667 -0.08866666666666667 -0.09053333333333333 -0.16920000000000002 -0.15833333333333333 -0.23706666666666668 -0.06786666666666666 -0.06786666666666666 -0.14846666666666666 -0.12166666666666666 -0.23706666666666668 -0.15833333333333333 -0.08866666666666667 -0.03673333333333333 -0.18373333333333333 -0.0556 -0.2796666666666666 -0.05553333333333333ZM3.401533333333333 14.378866666666667H1.9404V7.0732h1.4611333333333332v7.305666666666667ZM2.6816666666666666 0.16419999999999998c-0.3197333333333333 -0.019133333333333332 -0.6399999999999999 0.027 -0.9413333333333332 0.13553333333333334 -0.30133333333333334 0.10846666666666667 -0.5774666666666666 0.2772 -0.8116 0.4958 -0.23413333333333333 0.2185333333333333 -0.42133333333333334 0.48246666666666665 -0.5502 0.7756666666666666 -0.12893333333333332 0.2932666666666667 -0.19686666666666666 0.6095999999999999 -0.19966666666666666 0.9298666666666666 -0.0027999999999999995 0.3203333333333333 0.059533333333333334 0.6377999999999999 0.18326666666666663 0.9332666666666666 0.1238 0.2954 0.30633333333333335 0.5626 0.5365333333333333 0.7852666666666666 0.23026666666666665 0.22259999999999996 0.5034 0.3961333333333333 0.8028 0.5099333333333333 0.2994 0.11379999999999998 0.6188 0.1655333333333333 0.9388666666666667 0.152h0.020666666666666667c0.32053333333333334 0.019 0.6416666666666666 -0.027533333333333333 0.9436666666666667 -0.13673333333333332 0.30193333333333333 -0.10926666666666665 0.5784666666666667 -0.2789333333333333 0.8126666666666666 -0.49866666666666665 0.2342 -0.21973333333333334 0.42113333333333336 -0.4848666666666666 0.5494 -0.7793333333333333 0.12826666666666664 -0.2944 0.19513333333333333 -0.6118666666666666 0.19653333333333334 -0.9329999999999999 0.0013999999999999998 -0.3211333333333333 -0.06266666666666666 -0.6392 -0.1883333333333333 -0.9347333333333332 -0.12566666666666665 -0.2955333333333333 -0.31026666666666664 -0.5623333333333334 -0.5425333333333333 -0.7840666666666666C4.2001333333333335 0.5932 3.925133333333333 0.42113333333333336 3.6240666666666663 0.3092 3.3230666666666666 0.1973333333333333 3.0023999999999997 0.148 2.6816666666666666 0.16419999999999998Zm-0.020666666666666667 3.256133333333333h-0.020733333333333333c-0.12633333333333333 0.015399999999999999 -0.2544666666666666 0.003533333333333333 -0.3758666666666666 -0.03473333333333333 -0.12140000000000001 -0.038266666666666664 -0.2332 -0.102 -0.3279333333333333 -0.187 -0.09466666666666665 -0.08499999999999999 -0.1701333333333333 -0.18926666666666664 -0.22126666666666664 -0.30579999999999996 -0.051133333333333336 -0.11653333333333334 -0.07673333333333332 -0.24266666666666664 -0.07513333333333333 -0.3699333333333333 0 -0.5450666666666666 0.40879999999999994 -0.8975333333333333 1.0415999999999999 -0.8975333333333333 0.12766666666666665 -0.016999999999999998 0.25739999999999996 -0.006466666666666667 0.3806666666666666 0.03093333333333333 0.12319999999999999 0.03733333333333333 0.237 0.10066666666666665 0.3336666666666666 0.18573333333333333 0.09666666666666665 0.08506666666666665 0.174 0.1898 0.22673333333333334 0.30726666666666663 0.0528 0.11746666666666666 0.0798 0.24486666666666668 0.07913333333333333 0.3736 0 0.5450666666666666 -0.40879999999999994 0.8974666666666666 -1.0408666666666666 0.8974666666666666Z" fill="#000000" stroke-width="0.6667"></path></svg>