<svg viewBox="0 0 16 16" fill="none" xmlns="http://www.w3.org/2000/svg" id="Multiply--Streamline-Unicons" height="16" width="16"><desc>Multiply Streamline Icon: https://streamlinehq.com</desc><path d="m9.380799999999999 7.999133333333333 6.169533333333334 -6.159666666666666c0.1844 -0.1844 0.288 -0.4345333333333333 0.288 -0.6953333333333332s-0.1036 -0.5108666666666666 -0.288 -0.6952666666666666c-0.1844 -0.1844 -0.4345333333333333 -0.288 -0.6953333333333332 -0.288s-0.5108666666666666 0.1036 -0.6952666666666666 0.288L8 6.618333333333333 1.8402666666666667 0.44886666666666664c-0.1844 -0.1844 -0.4345333333333333 -0.288 -0.6952666666666666 -0.288S0.6340666666666666 0.2644666666666666 0.44966666666666666 0.44886666666666664c-0.1844 0.1844 -0.288 0.4345333333333333 -0.288 0.6952666666666666s0.1036 0.5109333333333332 0.288 0.6953333333333332l6.169533333333334 6.159666666666666 -6.169533333333334 6.159733333333333c-0.09179999999999999 0.09106666666666666 -0.1646 0.19939999999999997 -0.21433333333333332 0.3187333333333333 -0.04973333333333333 0.11933333333333332 -0.07533333333333334 0.24733333333333332 -0.07533333333333334 0.37659999999999993 0 0.12933333333333333 0.025599999999999998 0.2573333333333333 0.07533333333333334 0.37659999999999993 0.04973333333333333 0.1194 0.12253333333333333 0.22766666666666668 0.21433333333333332 0.31866666666666665 0.09106666666666666 0.09186666666666667 0.1993333333333333 0.16473333333333331 0.31866666666666665 0.21433333333333332 0.11933333333333332 0.0498 0.24733333333333332 0.07533333333333334 0.3766666666666666 0.07533333333333334 0.12926666666666664 0 0.25726666666666664 -0.02553333333333333 0.37659999999999993 -0.07533333333333334 0.11933333333333332 -0.04959999999999999 0.22759999999999997 -0.12246666666666667 0.31866666666666665 -0.21433333333333332L8 9.379933333333334l6.159733333333333 6.169533333333334c0.09106666666666666 0.09186666666666667 0.19939999999999997 0.16473333333333331 0.31866666666666665 0.21433333333333332 0.11933333333333332 0.0498 0.24733333333333332 0.07533333333333334 0.37659999999999993 0.07533333333333334s0.25726666666666664 -0.02553333333333333 0.3766666666666666 -0.07533333333333334c0.11926666666666666 -0.04959999999999999 0.22759999999999997 -0.12246666666666667 0.31866666666666665 -0.21433333333333332 0.09173333333333333 -0.091 0.1646 -0.19926666666666665 0.21433333333333332 -0.31866666666666665 0.04973333333333333 -0.11926666666666666 0.07533333333333334 -0.24726666666666666 0.07533333333333334 -0.37659999999999993 0 -0.12926666666666664 -0.025599999999999998 -0.25726666666666664 -0.07533333333333334 -0.37659999999999993 -0.04973333333333333 -0.11933333333333332 -0.1226 -0.22766666666666668 -0.21433333333333332 -0.3187333333333333l-6.169533333333334 -6.159733333333333Z" fill="#000000" stroke-width="0.6667"></path></svg>